# xmcd
#
# Track frame offsets: 
#        200
#        16230
#        31550
#        51410
#        67492
#        91692
#        114895
#        135535
#        151607
#        168167
#
# Disc length: 2484 seconds
#
# Revision: 0
# Processed by: cddbd v1.5.1PL2 Copyright (c) Steve Scherf et al.
# Submitted via: ExactAudioCopy v0.95a5
#
DISCID=6e09b20a
DTITLE=Travis 'Moonchild' Haddix - Signs Of The Times
DYEAR=1998
DGENRE=Blues
TTITLE0=Before You Laugh
TTITLE1=You're Got Another Think Coming
TTITLE2=My Wife, My Woman, My Girlfriend
TTITLE3=They Call Me The Moon Child
TTITLE4=Signs Of The Times
TTITLE5=Two Of Nothing
TTITLE6=Enough Is Enough
TTITLE7=Getting By With A Lie
TTITLE8=Jawbreaker
TTITLE9=Through With Love
EXTD=
EXTT0=
EXTT1=
EXTT2=
EXTT3=
EXTT4=
EXTT5=
EXTT6=
EXTT7=
EXTT8=
EXTT9=
PLAYORDER=
